<?xml version="1.0" encoding="UTF-8"?>
<svg viewBox="0 0 1600 1200" xmlns="http://www.w3.org/2000/svg">
 <path d="m389.56 193.46h987.03l-428.92 529.81v339.3h237.42c79.647 0 80.327 120.06 0 120.06h-592.24c-80.327 0-80.327-120.06 0-120.06h233.39v-341.91l-436.68-527.2z"/>
 <path d="m961.8 567.32c42.293 0 76.583-34.288 76.583-76.586 0-42.293-34.29-76.589-76.583-76.589-42.299 0-76.586 34.296-76.586 76.589 0 42.298 34.288 76.586 76.586 76.586z"/>
 <path d="m961.8 490.74"/>
 <circle cx="1064.9" cy="340.5" r="85.068" fill="#fff" stroke="#000" stroke-width="5"/>
 <g fill="none" stroke="#000" stroke-dasharray="null" stroke-linecap="null" stroke-linejoin="null" stroke-width="34">
  <line x1="646.65" x2="479.24" y1="231.33" y2="41.992"/>
  <line x1="276.01" x2="491.36" y1="48.461" y2="48.461"/>
 </g>
</svg>
